<svg width="182" height="54" viewBox="0 0 182 54" fill="none" xmlns="http://www.w3.org/2000/svg">
  <path d="M97.8669 23.7779C97.5585 23.9721 97.2264 24.0977 96.9891 24.0178C95.5895 23.4924 93.2292 18.7293 88.2238 21.345C86.4091 22.293 85.9821 24.1092 88.1764 25.16C89.9318 25.9139 91.7584 26.5307 93.5969 27.1018C94.4865 27.3873 95.376 27.7072 96.2538 28.0156C103.394 30.5056 103.418 37.3818 97.2382 41.5052C95.2219 42.8645 92.4938 43.1729 89.9437 42.8188C86.9547 42.4076 84.2504 41.3453 81.8307 39.6206C81.4512 39.3464 80.182 38.4212 80.2295 37.9986C80.2651 37.6788 80.7869 37.4046 81.4512 36.7079C82.9219 35.5542 83.4557 33.9094 84.4401 32.4474C86.3735 34.4806 85.8635 36.3766 90.5249 37.2676C92.0549 37.5646 93.585 37.5189 95.1032 36.9592C96.5503 36.4338 97.4399 35.5086 97.5585 34.0579C97.6771 32.5845 96.7638 31.5565 95.4472 31.0196C93.3834 30.1744 91.2365 29.489 89.1134 28.7352C87.0733 28.0156 84.7248 27.5815 83.3015 25.8453C82.1747 24.4747 81.7714 22.6585 82.0323 20.9909C82.3645 18.8435 83.9183 17.1187 85.8635 16.0907C90.169 13.8291 95.1626 14.9485 97.7957 17.153C99.907 19.0491 100.476 21.7105 97.8669 23.7779ZM176.933 27.5016C174.857 29.866 172.248 31.4194 169.33 32.5274C168.072 32.9957 166.281 33.6924 165.048 34.0465C169.342 39.7805 177.846 38.4898 181.725 36.4794C181.95 38.3755 178.605 43.9953 171.904 43.8239C168.95 43.7554 165.914 42.6589 163.648 40.6828C159.96 37.4732 158.726 32.0476 159.616 27.3302C160.043 25.0686 160.968 22.9212 162.355 21.1394C165.214 17.45 171.548 15.9308 175.521 18.2724C179.139 20.3855 179.649 24.3947 176.933 27.5016ZM164.052 32.2989C166.234 31.6707 168.855 30.4713 170.255 28.6324C171.631 26.8277 171.571 23.6865 169.686 22.293C167.634 20.7739 164.55 22.8299 163.636 24.8516C162.616 27.1246 162.96 30.1629 164.052 32.2989ZM131.623 51.0885C133.533 48.6784 135.324 46.4168 137.151 44.1095C138.776 46.0627 140.175 47.5248 143.046 48.6784C147.541 50.4717 153.092 50.0034 153.412 45.4459C153.555 42.9787 150.862 40.8085 148.81 39.8604C148.442 39.6891 147.944 39.7234 147.517 39.7462C147.055 39.7805 146.592 39.8947 146.141 40.0089C141.86 41.1055 137.044 38.1928 135.395 35.2116C133.604 31.9562 132.928 28.5296 134.043 24.9887C135.146 21.5163 137.329 18.7864 140.994 17.4157C142.868 16.7075 144.789 16.7761 146.723 17.0502C146.889 17.0731 147.067 17.0959 147.244 17.1073C147.292 17.1187 147.339 17.0616 147.482 16.9931C147.411 16.8103 147.351 16.6047 147.268 16.422C146.509 14.7201 147.707 12.6412 149.581 12.2186C151.23 11.8417 152.653 12.2986 153.982 13.1324C155.251 13.9319 155.334 15.6795 154.136 16.5362C153.887 16.7075 153.353 16.6276 152.997 16.5134C151.728 16.125 151.159 16.3763 150.696 17.5756C150.483 18.1353 150.613 18.5237 151.04 18.9349C154.586 22.3387 155.879 26.485 155.44 31.2138C155.215 33.6125 153.993 36.251 151.68 37.8844C151.692 38.1128 156.437 40.8656 156.959 44.555C157.374 47.5362 155.784 50.7915 152.285 52.0023C147.968 53.51 143.627 53.6014 139.179 52.4135C137.115 51.8538 134.945 51.671 132.81 51.3055C132.501 51.2598 132.193 51.1913 131.623 51.0885ZM141.871 32.7901C142.595 32.6758 144.967 31.1453 145.276 30.9739C145.382 31.0082 147.612 35.4286 148.62 35.5771C149.296 35.6456 151.265 32.5845 151.23 31.0996C151.621 28.8265 150.862 26.4507 149.071 24.7488C147.79 23.5495 146.165 23.3553 144.493 23.3781C140.911 23.4238 138.906 25.5598 138.242 28.7237C137.649 31.5679 138.752 33.978 140.816 36.0226C141.836 37.0277 143.71 37.5874 145.015 37.1419C144.066 35.8284 142.915 34.2521 141.871 32.7901ZM126.215 8.8262C128.457 8.24367 130.663 9.6486 130.817 11.8645C130.924 13.4065 129.809 14.9143 126.95 14.8C123.072 14.8686 122.514 9.78567 126.215 8.8262ZM131.861 42.3048C131.469 42.3847 131.113 42.5104 130.769 42.5104C128.563 42.499 126.369 42.4647 124.175 42.4304C123.333 42.419 123.107 42.1906 123.475 41.4481C125.432 37.4046 125.301 33.0985 125.313 28.8151C125.313 26.5193 125.396 24.2234 125.171 21.9618C125.017 20.3855 124.424 18.8435 123.973 17.3015C123.843 16.8675 123.854 16.6047 124.364 16.6162C126.488 16.6276 128.623 16.6619 130.758 16.7075C130.924 16.7075 131.09 16.7989 131.256 16.856C130.841 17.9069 130.354 18.9006 130.058 19.94C129.239 22.807 129.18 25.754 129.263 28.6895C129.334 31.0196 129.536 33.3612 129.785 35.6799C130.034 37.9643 130.651 40.1574 131.861 42.3048ZM6.98743 16.3991C6.76207 13.0867 6.44183 9.77425 5.54039 6.53033C5.25572 5.49091 4.46103 5.45664 3.7375 5.21677C2.69373 4.86268 1.62624 4.5657 0.558741 4.29157C0.0842983 4.16593 -0.0817565 3.9489 0.0368541 3.50344C0.0724372 3.34352 0.0368541 3.16077 0.0961594 3.00086C0.77224 1.1733 0.345242 1.25325 2.21929 1.92717C5.04222 2.94375 7.94818 3.61766 10.9846 3.35495C13.9262 3.10366 16.8558 2.73815 19.6313 1.56166C21.0428 0.967699 22.5491 0.56792 24.0199 0.0996082C24.4706 -0.0488809 24.9214 -0.105992 25.0756 0.476542C25.633 2.42975 27.1038 3.75473 28.4915 5.11397C29.9623 6.55317 30.5554 8.3122 30.9112 10.2654C31.6229 14.2175 29.6302 17.0388 26.9615 19.6316C24.9332 21.6077 22.5847 23.184 20.2125 24.7374C17.4133 26.5764 14.6378 28.461 11.8386 30.2886C10.7711 30.9739 11.0083 32.0362 11.1032 32.9043C11.4946 36.5137 12.9535 39.7005 15.6579 42.2934C16.0256 42.6475 16.4407 42.9901 16.7254 43.4013C16.8558 43.6069 16.8677 44.0295 16.7372 44.2237C16.5712 44.4407 16.1442 44.6806 15.8951 44.6235C11.6251 43.6183 7.66352 44.8748 3.71378 46.1541C3.13259 46.3483 2.63443 46.7366 2.05323 46.9308C1.76857 47.0222 1.36529 46.9765 1.06877 46.8508C0.202909 46.4853 0.21477 46.2911 0.760379 45.5487C1.50763 44.5435 2.20743 43.5041 2.83606 42.4304C4.78128 39.1979 5.87249 35.6913 6.37066 31.9905C7.09418 26.5535 7.36699 21.8932 6.98743 16.3991ZM10.7593 26.9076C13.8787 25.6854 21.1021 20.237 23.2015 17.8726C24.2809 16.6504 25.0281 15.2683 24.9214 13.5664C24.7316 10.6309 22.9761 8.81478 20.3786 7.63829C19.2755 7.13571 18.1012 6.70166 16.9033 6.48464C15.5155 6.23335 14.0685 6.23335 12.6452 6.19908C12.064 6.18766 11.6963 6.5646 11.6132 7.15855C11.4235 8.70056 11.1388 10.2311 11.0439 11.7731C10.9372 13.5893 10.8897 15.4054 10.8541 17.2215L10.7593 26.9076ZM42.9739 40.957C39.8663 40.957 36.7706 40.957 33.485 40.957C33.8172 40.1117 34.1018 39.4721 34.3153 38.821C34.8846 37.0391 35.4184 35.2573 35.964 33.464C37.4348 28.6895 37.0315 23.915 35.7979 19.1748C35.5133 18.1125 35.0744 17.0845 34.7186 16.0451C34.4576 15.2912 34.5881 15.1884 35.4065 15.2227C36.4859 15.2798 37.5652 15.3026 38.6565 15.2569C40.3051 15.1884 40.4475 15.2798 40.4119 16.8218C40.4119 17.0388 40.4356 17.2558 40.4593 17.667C40.8508 17.3815 41.1354 17.2101 41.3608 16.9931C43.1992 15.177 45.4884 14.4003 48.0386 14.6972C55.9973 15.6567 55.7364 25.8453 49.2721 26.5193C47.9674 26.6563 46.6745 26.2908 45.8087 25.3428C45.1919 24.6688 45.2393 24.3376 46.2475 23.8236C47.1015 23.3896 47.5997 22.7842 47.7302 21.8704C47.9199 20.4769 47.2201 19.5631 45.785 19.3689C44.0295 19.1405 42.7604 19.8144 41.8827 21.4935C40.8626 23.4695 40.4356 25.5826 40.3763 27.7871C40.2933 30.6884 40.5542 33.5439 41.3489 36.3424C41.7759 37.8615 42.3927 39.3236 42.9739 40.957ZM73.7059 25.6512C71.6421 28.0156 69.0208 29.569 66.1148 30.6769C64.8457 31.1567 63.0665 31.8534 61.833 32.1961C61.916 32.5502 63.1614 33.6581 63.363 33.8181C64.4661 34.6976 65.759 35.2801 67.1467 35.7256C68.5226 36.1825 69.9459 36.3766 71.3693 36.3881C74.6548 36.4223 76.8728 35.3258 78.4978 34.629C78.735 36.5251 75.3783 42.1449 68.6887 41.985C65.7234 41.905 62.687 40.8199 60.4215 38.8438C56.7446 35.6228 55.4992 30.1972 56.3887 25.4798C56.8157 23.2182 57.7528 21.0708 59.1286 19.289C61.9872 15.5996 68.321 14.0919 72.2944 16.422C75.9239 18.5465 76.4221 22.5443 73.7059 25.6512ZM60.8248 30.4485C63.0072 29.8203 65.6404 28.6209 67.0281 26.7934C68.404 24.9772 68.3447 21.8361 66.4588 20.4426C64.4068 18.9235 61.3229 20.9795 60.4215 23.0012C59.3896 25.2742 59.7336 28.3125 60.8248 30.4485ZM104.699 11.1106C106.869 10.1626 108.969 9.24882 111.045 8.34647C110.914 11.6932 110.772 15.1427 110.629 18.8207C111.519 18.3866 112.088 18.0554 112.693 17.8041C114.259 17.1873 115.825 16.5819 117.414 16.0108C117.924 15.8395 118.315 15.9651 118.268 16.6619C118.161 18.2952 118.09 19.9286 118.054 21.562C118.043 22.3044 117.746 22.3844 117.117 22.1445C115.908 21.6762 114.686 21.5392 113.44 22.0303C111.436 22.8184 110.701 24.429 110.594 26.3365C110.475 28.244 110.451 30.1629 110.499 32.0705C110.534 33.9094 110.855 35.7027 112.575 36.8678C115.267 38.6954 116.928 37.5303 118.92 35.7713C119.359 35.3829 119.679 35.3829 119.834 36.0226C119.917 39.2551 118.553 41.2311 116.524 42.1791C114.389 43.1843 110.712 43.15 108.743 41.7337C106.49 40.1231 106.561 36.982 106.573 33.9894C106.597 29.4433 106.775 24.8859 106.905 20.3398C106.988 17.233 106.3 14.286 104.877 11.499C104.817 11.3734 104.758 11.2477 104.699 11.1106Z" fill="#E31E24"/>
</svg>